<?xml version="1.0" standalone="no"?>
<!DOCTYPE svg PUBLIC "-//W3C//DTD SVG 20010904//EN"
 "http://www.w3.org/TR/2001/REC-SVG-20010904/DTD/svg10.dtd">
<svg version="1.0" xmlns="http://www.w3.org/2000/svg"
 width="648.000000pt" height="648.000000pt" viewBox="0 0 648.000000 648.000000"
 preserveAspectRatio="xMidYMid meet">
<metadata>
Created by potrace 1.11, written by Peter Selinger 2001-2013
</metadata>
<g transform="translate(0.000000,648.000000) scale(0.100000,-0.100000)"
fill="#000000" stroke="none">
<path d="M3068 5835 c-1 -1 -39 -5 -83 -9 -44 -3 -93 -8 -110 -11 -49 -8 -98
-17 -125 -22 -127 -22 -345 -86 -485 -143 -187 -75 -499 -255 -635 -367 -569
-468 -905 -1082 -978 -1788 -11 -112 -7 -482 7 -575 84 -560 284 -1003 633
-1401 40 -45 58 -74 58 -92 0 -22 5 -27 26 -27 18 0 51 -23 112 -79 417 -381
917 -604 1497 -669 149 -16 490 -7 640 18 33 5 78 12 100 16 58 9 259 61 340
88 337 114 659 303 924 544 46 43 96 79 110 82 18 4 26 12 26 27 0 12 25 50
56 85 30 35 64 74 75 87 10 13 31 38 45 55 70 85 199 293 265 426 119 243 199
484 234 710 6 41 14 86 16 100 19 109 26 452 12 600 -37 395 -170 783 -387
1134 -187 300 -503 617 -811 813 -302 192 -664 325 -1030 378 -19 3 -53 7 -75
11 -43 6 -451 14 -457 9z"/>
</g>
</svg>
